#!OML:ASF F:\VICON\USERDATA\INSTALL\Justin_Nancy\Justin_Nancy.ASF
:FULLY-SPECIFIED
:DEGREES
293
root -8.37892 17.3873 8.03756 0.17846 22.2262 -3.69098
lowerback 6.92299 -1.02994 -0.000725639
upperback 0.263847 -1.24039 3.2629
thorax -3.53856 -0.587286 3.50378
lowerneck -16.9912 -4.23183 -9.6392
upperneck 20.6775 -3.78354 2.4363
head 9.60541 -2.23745 1.93516
rclavicle 1.00883e-014 -2.98177e-014
rhumerus -30.2845 -14.0683 -77.5462
rradius 27.8517
rwrist 6.61286
rhand -16.3564 13.0494
rfingers 7.12502
rthumb 9.85632 -16.6999
lclavicle 1.00883e-014 -2.98177e-014
lhumerus -27.7898 6.18992 87.429
lradius 35.9759
lwrist -2.70496
lhand -19.048 24.5625
lfingers 7.12502
lthumb 7.2588 54.418
rfemur -16.5221 7.60574 14.8476
rtibia 20.6127
rfoot -5.84529 9.26006
rtoes -9.86561
lfemur -4.69294 -14.1616 -20.5791
ltibia 41.7353
lfoot -11.4836 -13.9025
ltoes -3.1945
294
root -8.37002 17.4113 8.15666 0.0241806 23.0394 -3.76602
lowerback 7.16812 -0.946068 0.14427
upperback 0.199535 -1.11353 3.17046
thorax -3.75499 -0.524634 3.3206
lowerneck -16.8857 -4.26918 -9.72706
upperneck 20.8971 -3.85852 2.59163
head 9.67347 -2.26579 1.99586
rclavicle -8.05078e-014 4.01545e-014
rhumerus -30.3752 -13.9646 -77.65
rradius 27.7356
rwrist 6.22194
rhand -15.2989 11.6173
rfingers 7.12502
rthumb 10.8765 -18.081
lclavicle -8.05078e-014 4.01545e-014
lhumerus -28.3502 5.72668 87.51
lradius 36.2619
lwrist -2.5501
lhand -18.5525 27.5219
lfingers 7.12502
lthumb 7.7371 57.3603
rfemur -15.5738 7.15084 15.1762
rtibia 20.287
rfoot -5.67553 8.68539
rtoes -8.41181
lfemur -5.45352 -14.209 -20.2474
ltibia 43.4549
lfoot -9.70501 -14.7402
ltoes -3.98786
295
root -8.35921 17.4262 8.27057 0.113201 23.9759 -3.64023
lowerback 7.21886 -0.851678 0.181211
upperback 0.168896 -0.98854 3.02822
thorax -3.82521 -0.463584 3.14036
lowerneck -16.8739 -4.36638 -9.60073
upperneck 20.8369 -3.98979 2.43432
head 9.65284 -2.33255 1.90186
rclavicle 1.65985e-014 -6.36111e-015
rhumerus -30.3972 -13.9819 -77.7247
rradius 27.6319
rwrist 6.62894
rhand -13.853 9.33974
rfingers 7.12502
rthumb 12.2708 -20.2803
lclavicle 1.65985e-014 -6.36111e-015
lhumerus -28.621 5.50758 87.5823
lradius 36.0603
lwrist -2.1941
lhand -18.9995 28.8653
lfingers 7.12502
lthumb 7.30564 58.7192
rfemur -15.0617 6.87615 15.1645
rtibia 20.3637
rfoot -6.38971 8.08969
rtoes -8.89513
lfemur -6.39054 -14.2169 -20.0364
ltibia 44.9528
lfoot -7.60216 -15.6431
ltoes -4.22477
296
root -8.35122 17.4401 8.3823 0.173723 24.9508 -3.33838
lowerback 7.41796 -0.743655 0.0262561
upperback 0.158756 -0.860886 2.85929
thorax -3.95433 -0.39773 3.04304
lowerneck -17.0051 -4.48094 -9.63162
upperneck 20.8508 -4.13931 2.49481
head 9.69386 -2.39617 1.90536
rclavicle 4.45278e-014 -1.35174e-014
rhumerus -30.5989 -13.8099 -77.818
rradius 27.5163
rwrist 7.37348
rhand -14.3496 9.96884
rfingers 7.12502
rthumb 11.792 -19.6792
lclavicle 4.45278e-014 -1.35174e-014
lhumerus -28.7346 5.76511 87.4327
lradius 35.4086
lwrist -2.39533
lhand -19.4989 27.3019
lfingers 7.12502
lthumb 6.82354 57.172
rfemur -14.5348 6.41476 15.0749
rtibia 20.633
rfoot -6.88258 7.36303
rtoes -9.41235
lfemur -7.29325 -14.0091 -19.9681
ltibia 46.3266
lfoot -5.63338 -16.4708
ltoes -3.83864
297
root -8.3455 17.4666 8.49661 0.125891 25.9904 -3.22561
lowerback 7.61742 -0.779037 -0.103616
upperback 0.120109 -0.919903 2.75261
thorax -4.10302 -0.423981 3.01653
lowerneck -17.09 -4.47988 -9.24538
upperneck 20.9926 -4.17878 2.26375
head 9.74677 -2.41115 1.75507
rclavicle 4.00054e-014 -1.59028e-015
rhumerus -30.8393 -13.0698 -78.1996
rradius 27.3876
rwrist 8.01194
rhand -15.879 11.5392
rfingers 7.12502
rthumb 10.3168 -18.1877
lclavicle 4.00054e-014 -1.59028e-015
lhumerus -29.0774 6.34206 87.0917
lradius 35.0013
lwrist -2.66065
lhand -19.5647 25.3637
lfingers 7.12502
lthumb 6.76001 55.2358
rfemur -13.8813 5.81195 15.2971
rtibia 20.8812
rfoot -6.8877 6.27317
rtoes -9.77173
lfemur -8.24512 -13.6263 -19.6657
ltibia 47.6741
lfoot -4.01043 -17.0401
ltoes -4.92488
